<?xml version="1.0" encoding="utf-8"?>
<!DOCTYPE svg PUBLIC "-//W3C//DTD SVG 1.1//EN" "http://www.w3.org/Graphics/SVG/1.1/DTD/svg11.dtd">
<svg version="1.1" id="Layer_1" xmlns="http://www.w3.org/2000/svg" xmlns:xlink="http://www.w3.org/1999/xlink" x="0px" y="0px"
	 viewBox="0 0 3965.207 3122.1196" enable-background="new 0 0 3965.207 3122.1196" xml:space="preserve">
<g>
	<linearGradient id="SVGID_1_" gradientUnits="userSpaceOnUse" x1="1800.4399" y1="3122.1196" x2="1800.4399" y2="472.7168">
		<stop  offset="0" style="stop-color:#94DCFF"/>
		<stop  offset="0.1749" style="stop-color:#8FD0FF"/>
		<stop  offset="0.4872" style="stop-color:#83B2FF"/>
		<stop  offset="0.898" style="stop-color:#6F80FF"/>
		<stop  offset="1" style="stop-color:#6A73FF"/>
	</linearGradient>
	<path fill="url(#SVGID_1_)" d="M3549.3845,3099.8064c-9.8242-26.4739-6.8223-70.0325-7.0881-98.1721
		c-0.282-29.8521,1.6582-69.9338-8.0056-98.3237c-5.7158,1.4744-11.3647,3.1711-16.9468,5.0906
		c21.3755-6.9329,21.4299-21.0244,16.1245-44.1287c-5.5007-23.9541-5.4248-51.8157-7.825-77.0251
		c2.6951-16.4658-2.0476-45.8884-4.4219-62.7759c-3.4568-24.5879-3.228-49.7571-10.6477-73.9001
		c-11.6833-38.0156-28.2598-87.374-63.0601-110.3435c-42.0955-27.7844-89.1775-51.0425-128.6199-82.5466
		c-0.4907,4.6006-15.0994-14.2996-21.1897-19.3501c-18.1489-15.0503-37.0422-29.9309-55.8342-44.2698
		c-32.6167-24.8877-67.092-47.0037-102.3262-67.8467c-61.8672-36.5981-167.2305-15.7083-227.1743-8.6062
		c-34.0676,4.0381-86.0059,8.9597-125.8438,19.3137c-35.6184,9.2571-69.0605,26.4094-105.2109,33.3572
		c-7.7268,1.4849-25.6616,11.0728-33.2881,8.613c-12.79-4.1252-27.2522-36.8188-34.5037-47.4644
		c9.8157-0.8257,12.551-3.9526,8.2063-9.3809c4.8125,5.8921,56.5354,32.6536,46.3323,9.8181
		c-14.9133-33.3774-43.7864-65.0735-64.3235-95.3484c-45.8943-67.656-91.7888-135.3123-137.6951-202.9602
		c-30.7393-45.2981-71.4839-141.7152-134.5225-146.6958c-9.8589-0.7789-18.7534,1.0236-28.3699,2.5964
		c-12.1099,1.9805-16.6619-17.8383-29.2256-18.6572c-24.665-1.6078-59.5723,22.9924-66.479,46.5037
		c-5.625,19.1476-24.8203,1.949-21.4158-9.6885c3.2893-11.244,17.1563-18.2275,21.416-30.1869
		c6.3579-17.8508-3.5713-35.42-13.895-49.7025c-36.4902-50.4828-92.0796-102.9421-31.8013-161.6617
		c44.8596-43.7009,85.5059-73.1705,61.9946-142.1254c-9.187-26.9442-28.9993-52.2075-47.9529-73.021
		c-7.814-8.5807-67.0847-65.1031-69.9753-57.0909c3.7939-10.515-35.3989-32.5087-42.4622-37.7383
		c-6.2324-4.6143-56.4823-33.6448-56.4823-38.3807c-23.5137-17.9486-48.1771-34.1265-72.0089-51.6401
		c-11.8799-8.7303-23.535-17.7742-34.7931-27.2963c-5.2109-9.8481-11.4504-32.0328-18.4436-39.3589
		c-1.2056-15.3184,7.9413-59.9874-4.2334-71.9583c-2.686-21.5284-12.6979-44.4117-19.8577-64.8302
		c-18.4052-52.4877-41.6039-103.2975-69.6189-151.3593c-117.7357-201.9837-318.3749-349.1757-543.828-408.4752
		C769.9637,378.0835,262.3322,652.5021,107.7814,1117.1932c-25.4516,76.5259-37.0568,155.1984-46.5054,235.0181
		c-10.349,87.4269-17.2675,178.9459-2.6209,266.3304c12.3927,73.9373,30.4162,146.2051,57.6419,216.6377
		c13.3467,34.5278,29.9299,68.9617,47.8238,101.2505c9.6793,17.4658,44.917,90.8104,64.1367,91.1995
		c-11.2759-0.2283,13.2681,33.2141,18.0527,41.656c12.5116,22.0757,35.6103,9.7883,58.8322,6.2358
		c-16.9621,2.595-33.9243,5.1892-50.8866,7.7837c29.7371,98.8752,123.5117,169.8896,195.7129,236.126
		c37.6816,41.3462,73.1415,84.6641,94.2899,136.9624c23.0334,56.96,40.9694,116.8425,61.9417,174.9175
		c-2.5742,23.5977,14.6047,49.52,16.165,73.0298c1.6789,25.2979,7.3073,50.0999,10.5811,75.177
		c7.5117,57.5381,3.4485,115.6284,1.5599,173.1694c-1.6037,48.8601-7.2139,93.8589-15.7943,142.5193
		c-5.1104,28.979,21.5482,24.0962,41.4963,24.0962c39.1526-0.001,78.3053-0.002,117.4579-0.0029
		c279.6619-0.0073,559.3237-0.0188,838.9856-0.0356c19.9271-0.0012,171.215,9.1765,173.2107-7.2197
		c7.1976-59.1531,14.6868-117.9504,24.1978-176.791c8.4559-53.5444,24.0803-111.364,20.3707-165.738
		c-3.5906-52.6304-15.9747-102.7319-16.0868-155.9028c-0.0056-8.7625-0.0076-17.5247-0.0061-26.2869
		c-9.5625-0.5825-18.9187,0.5454-28.0686,3.3835c21.5665-4.9641,29.4417,1.7361,32.072-22.5745
		c2.0018-18.4907,8.5367-36.5562,22.4276-49.4697c30.1285-28.0085,64.8892-20.4778,101.2811-31.8259
		c84.7866-26.4387,181.6786-12.8977,265.6866-42.6492c35.4775-12.5645,45.0974-40.1477,61.5288-70.5557
		c4.3154-7.9861,28.656-96.4968,17.55-94.5137c-0.0303-33.928-8.0027-78.1511-28.3599-106.0237
		c-10.0029-13.696-22.7021-24.4817-32.7397-38.1704c-5.9502-8.1147-11.9009-16.2292-17.8518-24.3433
		c-14.9958-20.4451-3.4844-10.0906-18.7246-4.665c16.6411-5.9243-1.2642-55.5115,0.6721-72.9304
		c1.7268-15.5326,11.446-70.0543,28.3772-77.6179c46.4866,84.0972,97.1123,165.8394,147.291,247.7593
		c26.0229,42.4839,52.1235,84.9202,78.3293,127.2917c6.6409,10.7375,72.4375,115.4292,75.2095,112.5022
		c-7.6194,8.0469,54.709,88.3516,62.7231,102.3079c13.7673,23.9751,8.2554,28.0442,8.2156,52.7778
		c-0.0261,16.2961,5.2781,25.3589-8.6509,34.8127c-9.0381,6.1345-16.728,14.301-21.8967,23.9797
		c-19.9709,37.397,33.6267,69.3235,62.0688,75.699c13.4382,3.0132-7.6316,30.5146-7.9634,37.1348
		c-0.5874,11.7185,35.0679,51.5598,40.0703,39.8237c10.8877,8.2129,6.7944,29.6531,18.2073,40.6973
		c9.4824,9.1763,21.9878,13.5972,34.135,17.9202c6.2246,11.1143,14.2026,21.1177,22.8999,30.3796
		c31.3738,33.4094,55.9255,70.655,84.1431,106.6099c12.8098,16.3223,21.6768,36.5942,31.7312,55.0032
		c7.9929,14.6343,13.8677,52.0198,31.5779,58.1956c23.1521,8.0732,60.2144,0.6853,84.7017,0.6257
		c23.1743-0.0562,48.8625,3.8813,65.374-7.647c-2.4529,1.6982-3.8455,4.2041-4.1777,7.5181
		c94.4846,2.9983,189.4233,0.4795,283.9585,0.4663c50.2476-0.0068,100.4954-0.0151,150.7429-0.0239
		C3476.7239,3119.2007,3561.7847,3133.2197,3549.3845,3099.8064C3545.312,3088.832,3550.271,3102.1951,3549.3845,3099.8064z
		 M2165.9341,1653.8241c0.1167,0.521,0.1914,1.0514,0.2466,1.5862C2166.1255,1654.8755,2166.0508,1654.3451,2165.9341,1653.8241z
		 M2103.7388,1397.2061c0.0107-0.0103,0.0195-0.0216,0.03-0.0321C2103.7583,1397.1844,2103.7495,1397.1957,2103.7388,1397.2061z
		 M2103.6719,1397.2646c-0.2747,0.2596-0.5781,0.5002-0.9067,0.7249C2103.0938,1397.7649,2103.3972,1397.5243,2103.6719,1397.2646z
		 M2256.8457,2286.1111c2.3962-0.4021,4.7859-0.8516,7.1729-1.3181C2261.6316,2285.2595,2259.2419,2285.709,2256.8457,2286.1111z
		 M3504.5369,2912.1406c1.4517-0.3481,2.8904-0.7278,4.3196-1.1301C3507.4272,2911.4128,3505.9885,2911.7925,3504.5369,2912.1406z
		 M2607.5032,2323.9429c-1.5808-2.0791-3.1614-4.158-4.7419-6.2368c3.3574,4.2561,6.5591,8.6267,9.605,13.1116
		C2610.7451,2328.5259,2609.124,2326.2344,2607.5032,2323.9429C2605.8987,2321.877,2608.7864,2326.5061,2607.5032,2323.9429z
		 M2620.991,2321.23c-0.5205-0.5229-1.0955-1.0037-1.7146-1.4497C2619.8955,2320.2263,2620.4705,2320.707,2620.991,2321.23z
		 M2599.0996,2676.5247c-1.2751,0.2429-2.5513,0.4788-3.8291,0.7C2596.5483,2677.0034,2597.8245,2676.7676,2599.0996,2676.5247z
		 M2771.293,2901.7515c-0.2322,0.0347-0.4644,0.0703-0.6965,0.1062C2770.8286,2901.8218,2771.0608,2901.7861,2771.293,2901.7515z"/>
	<g>
		<path fill="#446E84" d="M3533.3242,542.6854c-5.0645-75.7049-26.4277-134.1325-64.0447-175.2794
			c-21.5969-23.5977-46.7095-39.418-75.3386-47.449l-127.1089-35.6567c28.6292,8.031,53.7417,23.8516,75.3386,47.4492
			c37.6169,41.147,58.9802,99.5745,64.0447,175.2793c5.8262,87.094-18.8247,190.7299-73.9558,310.8604
			c-18.4868,41.9823-31.2615,73.1862-38.3838,93.6178c-10.2551,28.4124-17.1965,59.011-20.7629,91.8055
			c-3.5667,32.7944-4.0994,67.7729-1.6096,104.9921c0.8865,13.2532,1.6877,23.1968,2.4536,29.7854
			c0.7363,6.5999,1.6052,12.6946,2.5916,18.286l127.1089,35.6566c-0.9863-5.5913-1.8552-11.6862-2.5916-18.2859
			c-0.7659-6.5889-1.5669-16.5322-2.4536-29.7856c-2.4897-37.2192-1.957-72.1978,1.6096-104.9922
			c3.5664-32.7944,10.5078-63.393,20.7629-91.8054c7.1223-20.4316,19.897-51.6355,38.3838-93.6179
			C3514.4995,733.4152,3539.1504,629.7795,3533.3242,542.6854z"/>
		<path fill="#4E7F98" d="M3474.2053,174.3029c-54.2314-15.2129-115.5186-19.2349-183.8618-12.0518
			c-3.447,0.3623-6.8655,0.7546-10.2712,1.1606c-0.9155,0.1094-1.8286,0.2212-2.741,0.3335
			c-0.9807,0.1206-1.968,0.2339-2.9451,0.3584c-1.3091,0.1665-2.5994,0.3525-3.9021,0.5259
			c-1.554,0.2065-3.1096,0.4114-4.655,0.6272c-2.1279,0.2971-4.2407,0.6106-6.3521,0.9255c-1.4761,0.22-2.957,0.4351-4.4248,0.6638
			c-2.2266,0.3469-4.4346,0.7139-6.6426,1.0808c-1.3271,0.2207-2.6626,0.4324-3.9829,0.6602
			c-2.605,0.4492-5.188,0.9224-7.7666,1.3999c-0.8989,0.1663-1.8081,0.3215-2.7036,0.4915
			c-3.4651,0.657-6.9065,1.3391-10.3237,2.0466c-0.8267,0.1714-1.6404,0.3564-2.4644,0.5308
			c-2.5837,0.5461-5.1626,1.0979-7.7188,1.6736c-1.2451,0.2803-2.4751,0.5767-3.7134,0.864
			c-2.1167,0.491-4.2329,0.9824-6.3306,1.4937c-1.3608,0.3315-2.7087,0.6775-4.0615,1.0178
			c-1.9551,0.4917-3.9084,0.9849-5.8467,1.4944c-1.3972,0.3674-2.7842,0.7461-4.1729,1.1226
			c-1.8738,0.5083-3.7437,1.0205-5.6016,1.5457c-1.4028,0.3965-2.7983,0.8008-4.1919,1.2068
			c-1.8262,0.5322-3.6455,1.0713-5.4561,1.6196c-1.3879,0.4207-2.7717,0.8457-4.1506,1.2759
			c-1.7993,0.5615-3.5891,1.1331-5.3728,1.7109c-1.3591,0.4404-2.7173,0.8818-4.0674,1.3318
			c-1.7964,0.5989-3.5806,1.2109-5.3613,1.8269c-1.3076,0.4521-2.6174,0.9016-3.9163,1.363
			c-1.8296,0.6497-3.6431,1.3164-5.4553,1.9844c-1.2251,0.4514-2.4561,0.8967-3.6733,1.3567
			c-1.9429,0.7339-3.8662,1.4883-5.7891,2.2434c-1.0618,0.4167-2.1326,0.824-3.1882,1.2473
			c-2.4373,0.9773-4.8518,1.979-7.2571,2.9907c-0.522,0.2197-1.0527,0.4299-1.5732,0.6511
			c-0.0386,0.0164-0.0781,0.0317-0.1165,0.0481c-2.6589,1.1309-5.2908,2.2905-7.9099,3.4639
			c-0.5381,0.241-1.0767,0.4812-1.613,0.7241c-2.5903,1.1726-5.1628,2.3643-7.7139,3.5784
			c-0.4543,0.2163-0.9048,0.4363-1.3577,0.6538c-2.4558,1.179-4.8958,2.375-7.3152,3.5928
			c-0.2429,0.1223-0.4888,0.2419-0.7314,0.3645c-2.5417,1.2856-5.0581,2.5981-7.5596,3.9268
			c-0.5205,0.2764-1.041,0.553-1.5598,0.8313c-2.4644,1.322-4.9121,2.6621-7.3369,4.0261
			c-0.3796,0.2134-0.7554,0.4309-1.1338,0.6455c-2.2908,1.2979-4.5645,2.6138-6.8196,3.9495
			c-0.3164,0.1873-0.636,0.3716-0.9517,0.5598c-2.387,1.4219-4.75,2.8696-7.0969,4.3342c-0.4954,0.3088-0.9895,0.6189-1.4829,0.9299
			c-2.3408,1.4746-4.6658,2.9658-6.9666,4.4829c-0.2944,0.1943-0.5852,0.3921-0.8789,0.5869
			c-2.1638,1.4351-4.3088,2.8896-6.4373,4.3623c-0.3606,0.2495-0.7241,0.4961-1.0837,0.7468
			c-1.7688,1.2324-3.5286,2.4746-5.2727,3.7332c-0.397,0.2866-0.7854,0.5818-1.1812,0.8696
			c-0.7456,0.5422-1.4849,1.0913-2.2258,1.6384c-1.6033,1.1836-3.196,2.3782-4.7781,3.5842
			c-0.7449,0.5681-1.4907,1.1355-2.231,1.7085c-1.7883,1.384-3.5613,2.7844-5.3223,4.1978
			c-0.4556,0.3655-0.9175,0.7241-1.3711,1.0918c-2.1919,1.7756-4.3611,3.5757-6.5103,5.397
			c-0.5605,0.4746-1.1121,0.9587-1.6694,1.4368c-1.604,1.375-3.1982,2.7607-4.7781,4.1614
			c-0.7109,0.6304-1.4182,1.2649-2.1243,1.9004c-1.4873,1.3386-2.9626,2.6899-4.4282,4.0515
			c-0.6372,0.592-1.2778,1.1802-1.9109,1.7766c-2.0525,1.9331-4.0901,3.8823-6.0999,5.8611
			c-2.0225,1.9907-4.0044,3.9971-5.9634,6.0122c-0.6125,0.6301-1.2129,1.2649-1.8191,1.8972
			c-1.3567,1.415-2.7009,2.835-4.0266,4.262c-0.6643,0.7151-1.3247,1.4314-1.981,2.1494c-1.3098,1.4324-2.6011,2.8718-3.8799,4.3162
			c-0.5725,0.6467-1.1514,1.2913-1.7178,1.9404c-0.2275,0.2607-0.4636,0.5186-0.6902,0.7798
			c-1.0457,1.2056-2.0586,2.4236-3.0828,3.6375c-0.6089,0.7214-1.231,1.4377-1.8325,2.1621
			c-1.792,2.1587-3.5542,4.3289-5.2793,6.5134c-0.0229,0.0288-0.0469,0.0571-0.0696,0.0859
			c-1.7473,2.2141-3.4551,4.4434-5.1335,6.6838c-0.5488,0.7324-1.0767,1.4729-1.6179,2.208
			c-1.1157,1.5154-2.2283,3.032-3.313,4.5596c-0.6296,0.8867-1.2407,1.7808-1.8601,2.6716
			c-0.9666,1.3911-1.9297,2.7832-2.8706,4.1841c-0.6394,0.9517-1.2646,1.9089-1.8923,2.8652
			c-0.8909,1.3574-1.7744,2.7178-2.6414,4.0845c-0.6233,0.9827-1.2378,1.9688-1.8486,2.9563
			c-0.842,1.3606-1.6724,2.7258-2.491,4.0955c-0.594,0.9937-1.1843,1.989-1.7661,2.9878c-0.8091,1.3889-1.6013,2.7847-2.3867,4.1829
			c-0.5535,0.9854-1.1089,1.97-1.6504,2.96c-0.7957,1.4546-1.5691,2.9175-2.3394,4.3821c-0.4951,0.9414-0.9983,1.8801-1.4829,2.8259
			c-0.8281,1.6162-1.6284,3.2432-2.4258,4.8713c-0.3933,0.8035-0.8,1.6016-1.186,2.408c-1.1633,2.4302-2.2971,4.8718-3.3921,7.3284
			c-0.0032,0.0071-0.0066,0.0142-0.0098,0.021c-1.0991,2.4663-2.1584,4.9475-3.1887,7.4402c-0.3362,0.813-0.6514,1.634-0.98,2.45
			c-0.6792,1.6858-1.3555,3.3728-2.0034,5.0708c-0.3755,0.9834-0.7324,1.9741-1.0972,2.9619
			c-0.5708,1.5452-1.1384,3.0918-1.6836,4.6472c-0.3701,1.0554-0.7261,2.1165-1.0845,3.1765
			c-0.5085,1.5049-1.01,3.0125-1.4949,4.5266c-0.3489,1.0902-0.6892,2.1838-1.0256,3.2787
			c-0.4629,1.5052-0.9141,3.0151-1.3538,4.5294c-0.3198,1.1016-0.636,2.2046-0.9434,3.311c-0.4268,1.5359-0.8369,3.0784-1.24,4.6235
			c-0.2842,1.09-0.5706,2.179-0.843,3.2736c-0.4001,1.6078-0.7781,3.2242-1.1526,4.8419c-0.2407,1.0393-0.4895,2.0754-0.7195,3.1187
			c-0.3945,1.7888-0.761,3.5884-1.1245,5.3892c-0.178,0.8817-0.3694,1.7583-0.5398,2.6428c-0.5159,2.6747-1.0022,5.3608-1.45,8.0618
			c-0.0024,0.0149-0.0056,0.0294-0.0081,0.0442c-0.4497,2.7153-0.8601,5.446-1.2412,8.188
			c-0.1252,0.9009-0.2295,1.8098-0.3474,2.7136c-0.2412,1.8494-0.4792,3.7-0.6895,5.5614
			c-0.1223,1.0834-0.2258,2.1738-0.3376,3.2614c-0.1743,1.6973-0.3455,3.3958-0.4941,5.103
			c-0.1011,1.1592-0.1882,2.3239-0.2773,3.4875c-0.127,1.6541-0.2466,3.3109-0.3496,4.9741
			c-0.074,1.1948-0.1392,2.3931-0.2007,3.5925c-0.085,1.6531-0.1584,3.3105-0.22,4.9727c-0.0447,1.207-0.0862,2.4155-0.1187,3.6274
			c-0.0452,1.6851-0.0735,3.3767-0.0947,5.071c-0.0149,1.1923-0.0322,2.3836-0.0354,3.5804
			c-0.0046,1.7623,0.0127,3.5332,0.0337,5.3054c0.0134,1.1372,0.019,2.2715,0.043,3.4128c0.041,1.9561,0.1099,3.9231,0.1821,5.8914
			c0.0352,0.9652,0.0571,1.9253,0.0999,2.8933c0.1299,2.9399,0.2888,5.8911,0.4873,8.8574
			c3.7952,56.7334,21.4397,101.3816,52.9634,133.9335c18.1873,18.8066,38.6311,31.3866,61.3296,37.754l127.1089,35.6566
			c-22.6985-6.3673-43.1423-18.9474-61.3296-37.754c-31.5237-32.5519-49.1682-77.2001-52.9634-133.9335
			c-0.1985-2.9664-0.3574-5.9176-0.4873-8.8574c-0.0427-0.9681-0.0647-1.9281-0.0999-2.8934
			c-0.0723-1.9681-0.1411-3.9352-0.1821-5.8914c-0.0239-1.1414-0.0295-2.2756-0.043-3.4128
			c-0.021-1.7722-0.0383-3.543-0.0337-5.3054c0.0032-1.1967,0.0205-2.3879,0.0354-3.5802c0.0212-1.694,0.0496-3.3853,0.0947-5.0701
			c0.0325-1.2135,0.074-2.4235,0.1189-3.6322c0.0615-1.6589,0.1348-3.3136,0.2195-4.9636c0.0618-1.2028,0.1272-2.4041,0.2012-3.6021
			c0.1028-1.6604,0.2224-3.3143,0.3489-4.9656c0.0894-1.1655,0.1768-2.3318,0.2778-3.4928
			c0.1487-1.7067,0.3198-3.4048,0.4941-5.1017c0.1118-1.0875,0.2153-2.1782,0.3376-3.2617
			c0.2097-1.8586,0.4475-3.7063,0.6882-5.5527c0.1184-0.9075,0.2231-1.8202,0.3491-2.7249
			c0.3799-2.7335,0.7891-5.4557,1.2373-8.1628c0.0061-0.0364,0.0129-0.0724,0.019-0.1086c0.4458-2.6868,0.9292-5.3591,1.4424-8.0199
			c0.1709-0.8865,0.3625-1.765,0.541-2.6486c0.3628-1.7981,0.7288-3.595,1.1228-5.381c0.2305-1.0454,0.4795-2.0836,0.7207-3.125
			c0.3743-1.6163,0.752-3.2311,1.1519-4.8375c0.2727-1.0959,0.5596-2.1863,0.844-3.2776c0.4026-1.5431,0.812-3.0833,1.2383-4.6172
			c0.3079-1.108,0.6245-2.2126,0.9448-3.3162c0.4392-1.5131,0.8901-3.0217,1.3525-4.5258c0.3369-1.0956,0.6772-2.1901,1.0264-3.2809
			c0.4844-1.5129,0.9856-3.0195,1.4939-4.5232c0.3586-1.0619,0.7153-2.1245,1.0859-3.1816
			c0.5439-1.5513,1.1101-3.0939,1.6794-4.6353c0.3665-0.9919,0.7249-1.9869,1.1018-2.9749c0.6458-1.6919,1.3196-3.373,1.9963-5.053
			c0.3311-0.8215,0.6484-1.6481,0.9868-2.4666c1.0295-2.4913,2.0886-4.9712,3.187-7.436c0.0085-0.0192,0.0178-0.0381,0.0264-0.0574
			c1.0903-2.4453,2.2188-4.8757,3.3765-7.2947c0.3857-0.8054,0.792-1.6028,1.1851-2.4053c0.7974-1.6284,1.5977-3.2556,2.426-4.8721
			c0.4851-0.947,0.989-1.8867,1.4849-2.8298c0.7695-1.4631,1.5425-2.925,2.3376-4.3787c0.5422-0.9915,1.0986-1.9773,1.6526-2.9641
			c0.7839-1.396,1.575-2.7891,2.3826-4.1758c0.583-1.001,1.1748-1.9985,1.7703-2.9946c0.8176-1.3682,1.647-2.7317,2.488-4.0908
			c0.6113-0.988,1.2261-1.9749,1.8501-2.9583c0.8662-1.366,1.7495-2.7253,2.6396-4.082c0.6284-0.9575,1.2544-1.916,1.8945-2.8689
			c0.9399-1.3992,1.9021-2.7898,2.8677-4.1792c0.6201-0.8921,1.2319-1.7874,1.8625-2.6755
			c1.0825-1.5244,2.1931-3.0381,3.3066-4.5505c0.5437-0.7385,1.074-1.4822,1.625-2.2178c1.6785-2.2405,3.386-4.4697,5.1333-6.6836
			c0.0164-0.021,0.0339-0.0415,0.0505-0.0625c1.7307-2.1921,3.4993-4.3696,5.2974-6.5356c0.6016-0.7244,1.2236-1.4407,1.8325-2.1621
			c1.2461-1.4768,2.4951-2.9526,3.7729-4.417c0.5664-0.6494,1.1453-1.2939,1.7178-1.9407c1.2788-1.4443,2.5701-2.8838,3.8799-4.3162
			c0.6563-0.7178,1.3164-1.4341,1.9805-2.1489c1.3269-1.4282,2.6724-2.8494,4.0303-4.2656c0.6045-0.6309,1.2031-1.2639,1.814-1.8921
			c1.96-2.0159,3.9424-4.0227,5.9653-6.0139c2.0103-1.9797,4.0486-3.9294,6.1018-5.863c0.6309-0.5942,1.2693-1.1804,1.9041-1.7703
			c1.4688-1.3645,2.947-2.7185,4.4375-4.0598c0.7036-0.6335,1.4087-1.2659,2.1172-1.894c1.5811-1.4019,3.1763-2.7886,4.7815-4.1648
			c0.5571-0.4778,1.1086-0.9614,1.6687-1.436c2.1492-1.8213,4.3184-3.6213,6.5103-5.397c0.4531-0.3669,0.9141-0.7249,1.3687-1.0898
			c1.7627-1.4146,3.5374-2.8164,5.3271-4.2017c0.738-0.5713,1.4814-1.1367,2.2241-1.7029c1.5857-1.2092,3.1824-2.4065,4.7896-3.593
			c0.7371-0.5442,1.4727-1.0906,2.2144-1.6301c2.137-1.5544,4.2883-3.0938,6.4626-4.6089c0.3552-0.2476,0.7141-0.4912,1.0703-0.7375
			c2.1348-1.4771,4.2864-2.9363,6.4568-4.3755c0.2888-0.1917,0.5747-0.3862,0.8643-0.5771
			c2.3032-1.5186,4.6304-3.0115,6.9731-4.4875c0.4922-0.3101,0.9851-0.6191,1.479-0.9272c2.3481-1.4651,4.7119-2.9133,7.0999-4.3362
			c0.3142-0.187,0.6321-0.3704,0.9468-0.5569c2.2556-1.3357,4.5298-2.6519,6.8208-3.9502c0.3796-0.2151,0.7566-0.4331,1.1372-0.6475
			c2.4255-1.3643,4.8738-2.7046,7.3386-4.0268c0.5164-0.2769,1.0342-0.5522,1.5522-0.8274c2.5024-1.3291,5.02-2.6421,7.5627-3.9282
			c0.2444-0.1238,0.4919-0.2439,0.7368-0.3672c2.4189-1.2175,4.8584-2.4133,7.3137-3.592c0.4517-0.217,0.9009-0.4363,1.3535-0.6519
			c2.5532-1.2153,5.1279-2.408,7.7205-3.5815c0.5334-0.2415,1.0691-0.4805,1.6042-0.72c2.6577-1.1907,5.3301-2.3662,8.0288-3.5132
			c0.5281-0.2246,1.0667-0.4377,1.5964-0.6606c2.3975-1.0085,4.8042-2.0071,7.2336-2.9812c1.0586-0.4246,2.1323-0.8328,3.197-1.2507
			c1.9207-0.7542,3.8416-1.5078,5.7817-2.2407c1.218-0.46,2.4497-0.9055,3.6755-1.3574c1.811-0.6675,3.6235-1.3337,5.4517-1.9829
			c1.2988-0.4614,2.6086-0.9109,3.9163-1.363c1.783-0.6167,3.5696-1.2297,5.3684-1.8293c1.3455-0.4482,2.6987-0.8882,4.053-1.3269
			c1.7891-0.5798,3.5842-1.1531,5.3892-1.7163c1.374-0.4287,2.7527-0.8521,4.136-1.2712c1.8159-0.5503,3.6406-1.0908,5.4722-1.6245
			c1.3889-0.4045,2.7795-0.8076,4.1775-1.2029c1.8613-0.5259,3.7346-1.0391,5.6121-1.5483c1.3865-0.376,2.771-0.7539,4.1663-1.1206
			c1.9407-0.5103,3.897-1.0044,5.8545-1.4966c1.3506-0.3398,2.6958-0.6851,4.0544-1.0161c2.0981-0.5115,4.2153-1.0029,6.3328-1.4941
			c1.238-0.2871,2.467-0.5835,3.7114-0.8635c2.5696-0.5786,5.1619-1.1335,7.7593-1.6824c0.8093-0.1711,1.6084-0.353,2.4202-0.521
			c3.4189-0.7083,6.8616-1.3906,10.3281-2.0479c0.8926-0.1692,1.7988-0.324,2.6948-0.49c2.583-0.4783,5.1699-0.9519,7.7793-1.4021
			c1.3125-0.2263,2.6396-0.4368,3.9587-0.656c2.2163-0.3684,4.4326-0.7366,6.6677-1.085c1.4614-0.2278,2.936-0.4419,4.4058-0.6611
			c2.1179-0.3159,4.2373-0.6301,6.3718-0.9282c1.5398-0.2151,3.0901-0.4192,4.6384-0.625c2.2815-0.3032,4.5659-0.6035,6.8662-0.8865
			c0.9077-0.1118,1.8154-0.2231,2.7258-0.3318c3.408-0.4063,6.8291-0.7988,10.2783-1.1614
			c68.3433-7.1831,129.6304-3.1614,183.8618,12.0515L3474.2053,174.3029z"/>
		<g enable-background="new    ">
			<defs>
				<path id="SVGID_2_" enable-background="new    " d="M3382.6953,1308.033l127.1089,35.6566
					c-18.4775-5.1833-38.1682-6.6761-59.071-4.4791l-127.1089-35.6566C3344.5271,1301.3569,3364.2178,1302.8496,3382.6953,1308.033z
					"/>
			</defs>
			<clipPath id="SVGID_3_">
				<use xlink:href="#SVGID_2_"  overflow="visible"/>
			</clipPath>
			<path clip-path="url(#SVGID_3_)" fill="#4E7F98" d="M3450.7332,1339.2104l-127.1089-35.6566
				c20.9028-2.1969,40.5935-0.7042,59.071,4.4791l127.1089,35.6565C3491.3267,1338.5062,3471.636,1337.0134,3450.7332,1339.2104"/>
		</g>
		<path fill="#4E7F98" d="M3299.51,1527.2065c-3.1575-47.2006,9.9407-89.1632,39.3354-125.8365
			c0.8694-1.0844,1.7468-2.1523,2.6299-3.2087c0.2896-0.3467,0.5833-0.6851,0.8745-1.0286
			c0.5762-0.6799,1.1533-1.3575,1.7354-2.0256c0.9609-1.1031,1.9297-2.1907,2.9065-3.2617c0.0981-0.1078,0.1946-0.2196,0.293-0.3271
			c1.0754-1.1736,2.1621-2.3242,3.2566-3.4592c0.3367-0.3489,0.6775-0.689,1.0159-1.0342c0.7693-0.7852,1.5415-1.5645,2.3203-2.3308
			c0.4067-0.4003,0.8164-0.7953,1.2256-1.1904c0.7336-0.7081,1.4712-1.4082,2.2129-2.0996
			c0.4148-0.3867,0.8296-0.7733,1.2468-1.1548c0.7925-0.7245,1.5911-1.4363,2.3928-2.1421c0.3599-0.3167,0.717-0.6387,1.0786-0.9517
			c1.1614-1.0049,2.3301-1.9946,3.5105-2.9607c0.0549-0.0449,0.1108-0.0874,0.1655-0.1321
			c1.1257-0.9191,2.2615-1.8181,3.4048-2.7018c0.3879-0.2998,0.78-0.5909,1.1699-0.8867c0.8235-0.6249,1.6501-1.2435,2.4827-1.8502
			c0.4841-0.3527,0.9702-0.7009,1.4573-1.0476c0.6377-0.4537,1.2776-0.9031,1.9204-1.3464
			c0.5129-0.3538,1.0276-0.7041,1.5439-1.0511c0.6482-0.4357,1.2993-0.8651,1.9529-1.2904
			c0.5186-0.3374,1.0376-0.6733,1.5596-1.0042c0.6614-0.4193,1.3267-0.8306,1.9932-1.239c0.521-0.3193,1.0417-0.6392,1.5659-0.952
			c0.6816-0.4069,1.3682-0.8038,2.0554-1.1996c0.5156-0.297,1.03-0.5966,1.5491-0.8875c0.7129-0.3997,1.4314-0.7875,2.1501-1.1753
			c0.502-0.271,1.0017-0.5466,1.5066-0.8118c0.7651-0.4021,1.5376-0.7904,2.3093-1.1794c0.4651-0.2344,0.927-0.4753,1.3945-0.7051
			c0.9153-0.4497,1.8386-0.8831,2.7627-1.3145c0.3303-0.1542,0.657-0.3159,0.9885-0.4678c1.2598-0.5769,2.5276-1.1372,3.8042-1.6805
			c0.1042-0.0443,0.2104-0.0852,0.3147-0.1294c1.4194-0.6005,2.8513-1.1754,4.2913-1.7341c0.4434-0.172,0.8887-0.3398,1.334-0.5079
			c1.2192-0.4603,2.4463-0.9055,3.6802-1.3364c0.3665-0.1278,0.7302-0.2606,1.0979-0.3859
			c1.5596-0.5314,3.1304-1.0402,4.7131-1.5245c0.3452-0.1057,0.6943-0.2036,1.0405-0.307c1.2803-0.3823,2.5679-0.7495,3.863-1.1013
			c0.4724-0.1283,0.9453-0.256,1.4197-0.3802c1.4375-0.3765,2.8833-0.7366,4.3391-1.0759c0.1978-0.046,0.3931-0.0972,0.5911-0.1426
			c1.6423-0.3762,3.2988-0.7234,4.9646-1.0525c0.4534-0.0895,0.9097-0.1729,1.3645-0.2588
			c1.2959-0.2451,2.5986-0.4758,3.9087-0.6926c0.4587-0.0758,0.9163-0.1545,1.3767-0.2269
			c1.6953-0.2665,3.3997-0.5145,5.1184-0.7339c1.3379-0.1708,2.6821-0.3291,4.0344-0.4713l-127.1089-35.6565
			c-1.3096,0.1377-2.6125,0.2887-3.9089,0.4531c-0.043,0.0055-0.085,0.0129-0.1277,0.0183c-1.718,0.2192-3.4216,0.4673-5.116,0.7336
			c-0.4609,0.0725-0.9185,0.1512-1.3777,0.2272c-1.3083,0.2164-2.6096,0.4469-3.9038,0.6915
			c-0.4573,0.0864-0.9158,0.1703-1.3711,0.2603c-1.6648,0.3289-3.3208,0.6759-4.9622,1.052
			c-0.198,0.0454-0.3933,0.0964-0.5911,0.1426c-1.4558,0.3392-2.9016,0.6995-4.3391,1.0759
			c-0.4744,0.1243-0.9473,0.252-1.4197,0.3801c-1.2952,0.3518-2.5828,0.7191-3.863,1.1013
			c-0.3462,0.1035-0.6953,0.2014-1.0405,0.3071c-1.5828,0.4844-3.1536,0.9932-4.7131,1.5244
			c-0.3679,0.1255-0.7319,0.2583-1.0986,0.3862c-1.2327,0.4303-2.4585,0.8751-3.6765,1.335
			c-0.4473,0.1687-0.8943,0.3374-1.3394,0.5101c-1.436,0.5573-2.8643,1.1307-4.2798,1.7294
			c-0.0884,0.0374-0.179,0.0706-0.2673,0.1082c-0.0198,0.0083-0.0388,0.0173-0.0583,0.0258
			c-1.2751,0.5427-2.5417,1.1024-3.8003,1.6788c-0.3381,0.1549-0.6714,0.3198-1.0083,0.4773
			c-0.9182,0.4286-1.8354,0.8591-2.7446,1.3058c-0.4678,0.2297-0.9297,0.4707-1.3948,0.7052
			c-0.7717,0.3889-1.5442,0.7771-2.3093,1.1793c-0.5061,0.266-1.0073,0.5421-1.5105,0.8138
			c-0.7163,0.3866-1.4326,0.7732-2.1431,1.1715c-0.5227,0.293-1.0408,0.5946-1.5603,0.8939
			c-0.6836,0.3938-1.3665,0.7886-2.0447,1.1932c-0.5264,0.3141-1.0493,0.6354-1.5725,0.9559
			c-0.6646,0.4075-1.3281,0.8175-1.9873,1.2355c-0.5234,0.3317-1.0442,0.6688-1.5645,1.0072
			c-0.6514,0.424-1.3008,0.8523-1.9473,1.2867c-0.5181,0.3483-1.0347,0.7001-1.5493,1.0551
			c-0.6411,0.442-1.2793,0.8901-1.915,1.3425c-0.2896,0.2061-0.5837,0.4033-0.8723,0.6116
			c-0.198,0.1431-0.3916,0.2952-0.5891,0.4392c-0.8311,0.6055-1.6558,1.2229-2.4775,1.8462
			c-0.3916,0.2971-0.7854,0.5896-1.175,0.8906c-1.135,0.8774-2.2627,1.7703-3.3806,2.6824
			c-0.0632,0.0515-0.1274,0.1006-0.1907,0.1522c-1.179,0.965-2.3464,1.9537-3.5063,2.9574
			c-0.3638,0.3148-0.7231,0.6387-1.085,0.9573c-0.7996,0.7039-1.5959,1.4136-2.3862,2.136
			c-0.4187,0.3828-0.8347,0.7706-1.251,1.1587c-0.741,0.6907-1.4773,1.3896-2.2102,2.0969
			c-0.4094,0.3955-0.8191,0.7906-1.2261,1.1912c-0.7788,0.7664-1.551,1.5454-2.3203,2.3307
			c-0.3384,0.3453-0.6794,0.6853-1.0159,1.0343c-1.0945,1.135-2.1812,2.2855-3.2566,3.4592
			c-0.0984,0.1074-0.1948,0.2192-0.293,0.3271c-0.9771,1.071-1.9456,2.1586-2.9065,3.2616
			c-0.0962,0.1105-0.1951,0.2159-0.291,0.3268c-0.4851,0.5592-0.9636,1.1313-1.4443,1.6989
			c-0.2913,0.3436-0.585,0.682-0.8745,1.0286c-0.8831,1.0565-1.7605,2.1244-2.6299,3.2087
			c-29.3948,36.6735-42.4929,78.636-39.3354,125.8365c3.0728,45.9342,21.6741,84.0897,55.8757,114.4116
			c18.6936,16.557,38.9343,27.8988,60.73,34.0129l127.1089,35.6566c-21.7957-6.1141-42.0364-17.4559-60.73-34.0129
			C3321.1841,1611.2963,3302.5828,1573.1406,3299.51,1527.2065z"/>
		<linearGradient id="SVGID_4_" gradientUnits="userSpaceOnUse" x1="3431.394" y1="1680.9917" x2="3431.394" y2="194.4537">
			<stop  offset="0" style="stop-color:#94DCFF"/>
			<stop  offset="0.1872" style="stop-color:#92D8FF"/>
			<stop  offset="0.3853" style="stop-color:#8DCBFF"/>
			<stop  offset="0.5884" style="stop-color:#85B6FF"/>
			<stop  offset="0.7942" style="stop-color:#7998FF"/>
			<stop  offset="1" style="stop-color:#6A73FF"/>
		</linearGradient>
		<path fill="url(#SVGID_4_)" d="M3709.3013,261.5218c76.0674,54.864,117.5007,133.0591,124.2922,234.5862
			c2.741,40.9711-1.6829,81.2932-13.2827,120.9042c-11.6052,39.6432-29.8433,76.9817-54.7776,111.9666
			c-29.3867,41.2033-75.665,87.9998-138.8513,140.3752c-24.1565,19.7191-41.3806,34.2421-51.6736,43.5536
			c-40.5488,37.2993-67.4631,74.4407-80.751,111.4172c-13.2871,36.9924-17.8674,86.3844-13.7319,148.2068l0.8213,12.278
			l-77.6895,7.2229c-0.9863-5.5913-1.8552-11.6862-2.5916-18.2859c-0.7659-6.5889-1.5671-16.5322-2.4536-29.7855
			c-2.4897-37.2192-1.957-72.1978,1.6094-104.9923c3.5667-32.7944,10.5081-63.3931,20.7629-91.8054
			c7.1226-20.4316,19.8972-51.6355,38.384-93.6179c55.1309-120.1304,79.7817-223.7662,73.9556-310.8602
			c-5.0642-75.7049-26.4275-134.1324-64.0444-175.2794c-37.6545-41.143-85.9966-58.6441-145.0293-52.4395
			c-40.9792,4.3071-78.4666,20.0174-112.4258,47.1112c-33.989,27.097-50.3799,49.4454-49.1992,67.0954
			c0.5498,8.2194,10.6948,15.1134,30.4626,20.6476c19.7458,5.5444,34.0039,10.4141,42.77,14.5541
			c32.6252,16.9272,56.2805,35.2567,70.9199,54.9852c14.6418,19.7599,22.9412,43.8143,24.8398,72.2006
			c2.7451,41.034-8.6479,76.8451-34.1145,107.4899c-25.4805,30.6621-58.9568,48.137-100.3938,52.4921
			c-45.0627,4.7363-83.3586-9.1553-114.8774-41.7473c-31.5234-32.5519-49.168-77.2-52.9631-133.9334
			c-6.6638-99.6158,25.3662-184.2491,96.1423-253.9133c70.7529-69.6697,168.0901-111.0129,292.041-124.0407
			C3535.9458,185.4537,3633.2278,206.6822,3709.3013,261.5218z M3338.8455,1401.37
			c-29.3948,36.6735-42.4929,78.636-39.3354,125.8365c3.0728,45.9341,21.6738,84.0897,55.8755,114.4116
			c34.1914,30.2833,73.5583,43.1199,118.1482,38.4332c45.168-4.7473,82.4673-25.3013,111.8828-61.668
			c29.4148-36.3745,42.5557-78.1515,39.397-125.3677c-3.1995-47.8297-21.7302-86.6265-55.5669-116.353
			c-33.8362-29.7186-73.3455-42.1996-118.5134-37.4523C3405.5276,1343.9618,3368.241,1364.7043,3338.8455,1401.37z"/>
	</g>
</g>
</svg>
